<?xml version="1.0" standalone="no"?>
<!DOCTYPE svg PUBLIC "-//W3C//DTD SVG 20010904//EN"
 "http://www.w3.org/TR/2001/REC-SVG-20010904/DTD/svg10.dtd">
<svg version="1.0" xmlns="http://www.w3.org/2000/svg"
 width="210.000000pt" height="210.000000pt" viewBox="0 0 210.000000 210.000000"
 preserveAspectRatio="xMidYMid meet">
<g transform="translate(0.000000,210.000000) scale(0.100000,-0.100000)"
fill="#000000" stroke="none">
<path d="M160 1894 c0 -5 22 -70 50 -144 27 -74 47 -136 45 -139 -3 -2 -23 4
-45 14 -22 10 -43 16 -45 13 -8 -7 22 -80 122 -301 102 -223 150 -285 258
-337 59 -28 195 -56 227 -46 7 3 61 7 119 10 l106 6 5 -74 c3 -45 13 -90 24
-114 l20 -39 -36 -30 c-46 -39 -85 -112 -101 -191 -32 -153 57 -303 203 -347
66 -19 223 -19 306 0 67 16 222 83 222 96 0 4 8 10 18 13 28 9 129 98 184 163
55 64 103 141 95 149 -3 3 -27 -9 -53 -27 -115 -79 -224 -93 -326 -40 -62 31
-290 193 -296 210 -1 4 23 27 54 51 54 41 93 100 94 143 0 21 2 21 41 -2 43
-26 137 -49 231 -57 58 -4 86 -12 113 -30 l35 -23 0 25 c0 41 -46 165 -87 235
-48 82 -176 210 -275 277 -81 55 -290 162 -316 162 -8 0 26 -27 76 -59 93 -61
172 -127 172 -142 0 -5 -9 -9 -21 -9 -11 0 -34 -13 -50 -29 -25 -26 -29 -37
-29 -85 0 -33 -4 -56 -11 -56 -5 0 -256 169 -557 376 -301 207 -553 379 -559
381 -7 3 -13 1 -13 -3z m553 -469 c406 -279 406 -279 378 -293 -27 -13 -39 -8
-301 123 -150 75 -274 134 -277 132 -2 -3 100 -78 228 -168 260 -182 255 -173
106 -186 -118 -11 -217 0 -281 31 -84 41 -129 99 -212 273 -41 84 -74 156 -74
158 0 2 16 -3 35 -11 19 -7 39 -14 44 -14 6 0 -9 56 -34 125 -26 73 -39 122
-31 118 7 -4 196 -134 419 -288z m886 -289 c31 -16 63 -56 106 -130 l28 -48
-24 7 c-46 14 -124 57 -151 83 -32 30 -37 76 -10 91 22 13 18 13 51 -3z m-406
-53 c-68 -24 -108 -83 -83 -123 5 -9 5 -17 -1 -20 -5 -4 1 -22 15 -43 19 -28
22 -37 11 -37 -17 0 -19 -14 -6 -39 8 -14 3 -19 -31 -28 l-40 -11 -19 42 c-26
57 -25 145 2 197 24 49 82 79 149 78 l45 -1 -42 -15z m-134 -596 c31 0 67 6
81 13 l25 13 -24 -27 c-31 -33 -113 -73 -167 -82 -41 -6 -42 -5 -49 26 -4 17
-4 47 -1 65 l7 34 36 -21 c25 -15 52 -21 92 -21z m195 -160 c-27 -84 -63 -149
-79 -143 -8 3 -33 10 -57 16 -23 7 -51 18 -61 25 -16 11 -12 15 39 40 32 16
82 53 113 85 62 64 72 59 45 -23z"/>
</g>
</svg>
